<?xml version="1.0" encoding="utf-8"?>
<!-- Generator: Adobe Illustrator 16.0.0, SVG Export Plug-In . SVG Version: 6.00 Build 0)  -->
<!DOCTYPE svg PUBLIC "-//W3C//DTD SVG 1.1//EN" "http://www.w3.org/Graphics/SVG/1.1/DTD/svg11.dtd">
<svg version="1.1" xmlns="http://www.w3.org/2000/svg" xmlns:xlink="http://www.w3.org/1999/xlink" x="0px" y="0px" width="500px"
	 height="500px" viewBox="0 0 500 500" enable-background="new 0 0 500 500" xml:space="preserve">
<g id="Background">
	<rect fill="#3A6EC6" width="500" height="500"/>
</g>
<g id="Particles">
	<g>
		<rect x="332" y="203" fill="#FFFFFF" width="94" height="94"/>
		<rect x="74" y="203" fill="#FFFFFF" width="94" height="94"/>
	</g>
</g>
<g id="_x22_Tunneling_x22_">
	<g>
		<defs>
			<rect id="SVGID_1_" x="74" y="203" width="352" height="94"/>
		</defs>
		<clipPath id="SVGID_2_">
			<use xlink:href="#SVGID_1_"  overflow="visible"/>
		</clipPath>
		<g clip-path="url(#SVGID_2_)">
			
				<rect x="92.075" y="236.513" transform="matrix(0.3915 -0.9202 0.9202 0.3915 -138.1711 291.0945)" fill="#FFFFFF" width="117.85" height="27"/>
			
				<rect x="125.075" y="236.513" transform="matrix(0.3915 -0.9202 0.9202 0.3915 -118.0893 321.4592)" fill="#FFFFFF" width="117.85" height="27"/>
			
				<rect x="158.075" y="236.513" transform="matrix(0.3915 -0.9202 0.9202 0.3915 -98.0075 351.8256)" fill="#FFFFFF" width="117.85" height="27"/>
			
				<rect x="191.075" y="236.513" transform="matrix(0.3915 -0.9202 0.9202 0.3915 -77.9257 382.192)" fill="#FFFFFF" width="117.85" height="27"/>
			
				<rect x="224.075" y="236.513" transform="matrix(0.3915 -0.9202 0.9202 0.3915 -57.8427 412.561)" fill="#FFFFFF" width="117.85" height="26.999"/>
			
				<rect x="257.076" y="236.513" transform="matrix(0.3915 -0.9202 0.9202 0.3915 -37.7607 442.9276)" fill="#FFFFFF" width="117.85" height="26.999"/>
			
				<rect x="290.076" y="236.513" transform="matrix(0.3915 -0.9202 0.9202 0.3915 -17.6786 473.2941)" fill="#FFFFFF" width="117.85" height="26.999"/>
		</g>
	</g>
	<g>
	</g>
	<g>
	</g>
	<g>
	</g>
	<g>
	</g>
	<g>
	</g>
	<g>
	</g>
	<g>
	</g>
	<g>
	</g>
	<g>
	</g>
	<g>
	</g>
	<g>
	</g>
	<g>
	</g>
	<g>
	</g>
	<g>
	</g>
	<g>
	</g>
</g>
</svg>
