<svg xmlns="http://www.w3.org/2000/svg" xmlns:xlink="http://www.w3.org/1999/xlink" width="500" height="500" viewBox="0 0 500 500"><path fill="#3A6EC6" d="M0 0h500v500H0z"/><g fill="#FFF"><path d="M332 203h94v94h-94zM74 203h94v94H74z"/></g><defs><path id="a" d="M74 203h352v94H74z"/></defs><clipPath id="b"><use xlink:href="#a" overflow="visible"/></clipPath><g clip-path="url(#b)" fill="#FFF"><path d="M115.5 299l46-108.5 25 10.6-46 108.5zM148.5 299l46-108.5 25 10.6-46 108.5zM181.5 299l46-108.5 25 10.6-46 108.5zM214.5 299l46-108.5 25 10.6-46 108.5zM247.5 299l46-108.5 25 10.6-46 108.5zM280.5 299l46-108.5 25 10.6-46 108.5zM313.5 299l46-108.5 25 10.6-46 108.5z"/></g></svg>